<?xml version="1.0" encoding="utf-8"?>
<!-- Generator: Adobe Illustrator 23.0.1, SVG Export Plug-In . SVG Version: 6.00 Build 0)  -->
<svg version="1.1" id="Layer_1" xmlns="http://www.w3.org/2000/svg" xmlns:xlink="http://www.w3.org/1999/xlink" x="0px" y="0px"
	 width="92px" height="29px" viewBox="0 0 92 29" style="enable-background:new 0 0 92 29;" xml:space="preserve">
<style type="text/css">
	.st0{fill:#D02E2E;}
	.st1{fill:#FFFFFF;}
</style>
<polygon class="st0" points="91.44,0.52 1.21,0.02 0.11,28.81 90.52,28.52 "/>
<path class="st1" d="M22.05,6.56c0,0.25-4.02,17.06,5.16,17.15c9.18,0.08,5.69-16.81,5.69-16.81L22.05,6.56z"/>
<polygon class="st1" points="65.5,6.34 65.5,23.23 69.4,23.44 69.93,6.13 "/>
<polygon class="st1" points="52.14,5.38 46.14,22.26 56.89,22.89 "/>
<polygon class="st1" points="58.9,5.38 52.05,22.68 63.65,22.89 "/>
<polygon class="st1" points="71.69,6.53 71.48,9.98 84.42,10.77 84.83,6.53 "/>
<polygon class="st1" points="75.1,7.27 75.48,23.14 79.63,23.33 80.2,7.08 "/>
<path class="st1" d="M13.86,11.73L7.17,21.95c2.58,1.6,8.18,2.84,10.8-1.2C21.62,15.11,13.86,11.73,13.86,11.73z"/>
<path class="st1" d="M13.45,17.44l6.39-9.74c0,0-7.54-4.7-11.03,0.68C5.33,13.76,13.45,17.44,13.45,17.44z"/>
<path class="st1" d="M36.16,23.28l-0.43-10.2c0,0,9.44,0.05,9.45,5.66C45.19,24.34,36.16,23.28,36.16,23.28z"/>
<path class="st1" d="M35.85,15.56l-0.4-9.31c0,0,8.75,0.04,8.76,5.16C44.23,16.53,35.85,15.56,35.85,15.56z"/>
</svg>
