<svg data-name="Topher McCulloch" xmlns="http://www.w3.org/2000/svg" viewBox="0 0 300 78"><defs><style>.cls-1{fill:#d02e2e}.cls-2{fill:#a50709}</style></defs><title>custom-login-logo</title><path class="cls-1" d="M101.55 14.9a17 17 0 1 0 17.1 17 17 17 0 0 0-17.1-17m-42.9 1.7h-12.2l.6 10.3H59l-.3-10.3m24.5 0H69.65l-.1 10.3h13.5l.1-10.3"/><path class="cls-1" d="M90.15 51.6v5.2l22.6-.1-.2-5.1zm71.2-35.3h-10.1v45.3h10.1V44.9h-10.1v-9.2h10.1zm22 28.6h-10.8v16.7h10.8zm0-28.6h-10.8v19.4h10.8zm-22 19.4v9.2h11.2v-9.2z"/><path class="cls-2" d="M151.25 35.7v9.2h10.1v-9.2zm21.3 0v9.2h10.8v-9.2z"/><path class="cls-1" d="M219.25 16.7h-18.7l.1 8.2h18.6zM69.55 26.9h-10.7l.7 35.5h9.7z"/><path class="cls-2" d="M69.65 16.6h-11l.2 10.3h10.7z"/><path class="cls-1" d="M232.65 17.7a30 30 0 0 0-4.5.3v30.3-22.1l13.3 18.8c4.6-2.4 8.7-6.6 8.7-13.8 0-11.7-11.1-13.5-17.5-13.5m-103.6-1.1a38.3 38.3 0 0 0-6.3.5h9.9l-.2 31.3c7.2-2.2 15.7-7.1 15.1-17.7-.8-12.1-11.4-14.1-18.5-14.1m-6.3.5v46h9.5l.1-14.7a42 42 0 0 1-9.6 1.8z"/><path class="cls-2" d="M122.75 17.1v33.1a42 42 0 0 0 9.6-1.8l.3-31.3z"/><path class="cls-1" d="M241.35 45a33.5 33.5 0 0 1-13.3 3.3v14h25.5z"/><path class="cls-2" d="M228.15 26.2v22.1a33.85 33.85 0 0 0 13.3-3.3z"/><path class="cls-1" d="M200.55 16.7h-9.4l-.1 45.2h27.4v-13l-8.9.1-.1-13.2h-8.6l-.2-10.9h-9.5v-8.2z"/><path class="cls-2" d="M200.55 16.7h-9.4v8.2h9.5z"/></svg>