<svg xmlns="http://www.w3.org/2000/svg" id="social-icons" version="1.1" viewBox="0 0 192 240"><defs><radialGradient id="radial-gradient" cx="-1700.4" cy="-2472.8" r="55.7" fx="-1700.4" fy="-2472.8" gradientTransform="matrix(.68327 -.73016 -.65715 -.61495 -465.3 -2674.6)" gradientUnits="userSpaceOnUse"><stop offset="0" stop-color="#ffd042"/><stop offset=".5" stop-color="#ec1f80"/><stop offset="1" stop-color="#2985ba"/></radialGradient><style>.st4{fill:#231f20}.st10{fill:#fff}.st19{fill:#4e47e1}</style></defs><g id="twitter"><path d="M96 46.6 49.4 48 48 1.4 96 0v46.6z" style="fill:#2aa9e0"/><path d="m79.6 10.2-7.2 2.7-.7 6.4-13.9-7.6 3.6 8.9-4.1-.1 6 5.8-3.7.8 6.1 4.5-4.4 2.1-5.7.2 11.6 3.9 15.3-7.4 2.2-12.3 3.7-3.7-5.2 1.4 4.7-4.4-5.2 1.1-3.1-2.3z" class="st10"/></g><g id="linkedin"><path d="M192 46.6 145.4 48 144 1.4 192 0v46.6z" style="fill:#1b75bb"/><path d="M159.7 11.4c0 2.4-2 4.4-4.4 4.4s-4.4-2-4.4-4.4 2-4.4 4.4-4.4c2.4 0 4.4 1.9 4.4 4.4ZM151.8 18.2v24l7.8.3 1-24.6-8.8.3zM187.2 18.1l-8.4.3v15.5L166.2 19l-1 23.4H186l1.2-24.3z" class="st10"/></g><g id="vimeo"><path d="M96 94.6 49.4 96 48 49.4 96 48v46.6z" style="fill:#0098cc"/><path d="M62.1 57.4 54 66.1l7-.9 6.8 22.9h6.7l16.6-28.3-15.5-2.9-2.8 7.1 7.7.4-9 11.6-3.2-18.6h-6.2z" class="st10"/></g><g id="youtube"><path d="M48 94.6 1.4 96 0 49.4 48 48v46.6z" style="fill:#e3e4e5"/><path d="M48 94.6 1.4 96 .7 73.1H48v21.5z" style="fill:#be2427"/><path d="m15.1 55.8-11.5-.1L8 61.5v7.7l3.1.2.2-7.9 3.8-5.7zM31.7 56.1c0 .2-4.2 14 5.3 14.1s5.9-13.8 5.9-13.8l-11.2-.3ZM29.6 62.4c0 4-3.2 7.2-7.2 7.2s-7.2-3.2-7.2-7.2 3.2-7.2 7.2-7.2 7.2 3.2 7.2 7.2Z" class="st4"/><path d="M14.7 76.7c0 .2-4.2 14.2 5.4 14.3 9.6 0 6-14 6-14l-11.4-.3ZM13.3 76.2H2.1l-.2 3 3.6.2.2 10.9 3.2.1.3-10.8 3.7.2.4-3.6zM37.6 78v13l9.2.1-.2-4.1-3.6-.1-.1-4.4-2.1.1v-5.1l-3.2.5zM32.7 83.1c1.6-.4 3-1.3 3-3.1 0-4.2-7.4-4.2-7.4-4.2l.7 15s7.6.9 7.6-3.7c0-2.3-1.9-3.4-3.9-4Z" class="st10"/></g><g id="behance"><path d="M192 94.6 145.4 96 144 49.4l48-1.4v46.6z" style="fill:#00a0e3"/><path d="M185 55.9h-15.2l2.8 4.9h10l2.4-4.9zM169.6 66.5l.1 20.3 19.5.4-.5-6.4-7.6-.2-.2-6.9-4.5.2-.1-7.9-6.7.5zM160.4 72.7c1.6-1.1 2.7-2.8 2.7-5.2 0-8.7-14.4-8.8-14.4-8.8l1.2 29.2s16.1 1.8 16-7.8c0-3.7-2.5-5.9-5.5-7.4Z" class="st10"/></g><g id="instagram"><path d="M96 142.6 49.4 144 48 97.4 96 96v46.6z" style="fill:url(#radial-gradient)"/><path d="m88.8 102.7-34.9.3-.7 34.4 36.5 2-.9-36.7Zm-32.1 32.4.5-29.9h28.7l.3 31.2-29.5-1.3Z" class="st10"/><path d="m80.8 108.5-2 1.8 1.9 3.4 2.9-2-2.8-3.2zM74.5 112.2l-4.9-.3-7.2 4.3-.5 7.9 6.7 6.5 6-.3 5.3-5.1.2-7.1-5.6-5.9Zm-2.1 15.1-6.2-1.8-1-5.5 4.3-5.5 5.9 1.9 1.7 6.8-4.7 4.1Z" class="st10"/></g><g id="facebook"><path d="M48 142.6 1.4 144 0 97.4 48 96v46.6z" style="fill:#2f5191"/><path d="M41.3 117.5h-9.4l-.1-9.2 7.1 1.4v-8l-8.9-.1-7.2 10.6.3 5.3h-7.3l-.3 7.8 7.9.3.8 17.7 8.1-.2L32 126l9.6.3-.3-8.8z" class="st10"/></g><g id="flickr"><path d="M144 46.6 97.4 48 96 1.4 144 0v46.6z" class="st10"/><path d="M118.9 25.3c0 5-4.1 9-9 9s-9-4.1-9-9 4-9 9-9 9 4 9 9Z" style="fill:#3664ae"/><path d="M139.6 24.6c0 5-4.1 9.1-9.1 9.1s-9.1-4.1-9.1-9.1 4.1-9.1 9.1-9.1 9.1 4.1 9.1 9.1Z" style="fill:#ec1f80"/></g><g id="google-plus"><path d="M48 46.6 1.4 48 0 1.4 48 0v46.6z" style="fill:#db4135"/><path d="M35.9 17.4v5l-4.9.1.3 2.8 4.7-.1V30h3l-.1-4.8 4.5.1-.1-3h-4.4l-.2-4.7-2.8-.2zM18.7 36.4l1.7-26S5 10.2 4.8 24.4c-.3 14.4 13.9 12 13.9 12ZM21 20.8l1.4 16.6 6.3.2.9-15.9-8.6-.9z" class="st10"/></g><g id="github"><path d="m192 144-48 1.4 1.4 46.6 46.6-1.4V144z" class="st4"/><path d="m163.4 191.5.2-5.7h-6.8c0-.1-2.7-5.6-2.7-5.6l-4.7-2.2h5.4c0-.1 4.1 5.4 4.7 5.3.6-.1 4.3-.9 4.3-.9l2.6-3.2-10.3-4.1-2.8-9.9 3.5-4.5-.6-3 .8-4.4 6.7 3.5 6.1-.8 6.1.8 6.7-3.5 1.2 4.4-1 3 4 4.5-2.7 9.9-10.9 4.1 2.8 3 .7 8.9-13.3.4Z" class="st10"/></g><g id="snapchat"><path d="m48 144-48 1.4L1.4 192l46.6-1.4V144z" style="fill:#fffc00"/><path d="m17.2 181.1-6 1.2-.2-3.1-4.5-2.2 5-3.4 2.1-4.2-6.4-3.6 4-1.6 2.9.4-.1-7.5 6-6 8 1.1 5.4 4.9.2 7.4 2-.4 4.2 1.6-6 3.7 1.6 3.7 6.3 4.8-4.5 1.3-.9 2.7-4.3-.6-9.2 3.7-5.6-3.9z" class="st10"/><path d="m20.3 151.9 7.4 1 4.9 4.6.2 8 2.7-.5 2.5 1-5.2 3.2 1.9 4.5 5.3 4-3.4 1-.9 2.5-3.9-.5-9 3.6-5.5-3.9-5.4 1.1-.2-2.7-3.7-1.9 4.2-2.8 2.5-5-5.7-3.2 2.4-1 3.6.5v-8c-.1 0 5.3-5.5 5.3-5.5m-.5-1.6-.5.5-5.5 5.6-.4.4v6.8c.1 0-1.7-.3-1.7-.3h-.4c0-.1-.4 0-.4 0l-2.4 1-3 1.3 2.7 1.5 4.4 2.5-1.7 3.4-3.8 2.6-2.1 1.5 2.4 1.1 3 1.4v1.8c.1 0 .2 1.7.2 1.7l1.6-.3 4.8-.9 5 3.5.7.5.8-.3 8.6-3.5 3.6.5 1.2.2.4-1.2.6-1.7 2.6-.8 2.8-.8-2.4-1.8-5-3.8-1.3-2.9 4.1-2.5 2.6-1.6-2.9-1.1-2.5-1-.4-.2h-.4c0 .1-1 .3-1 .3l-.2-6.2v-.6l-.5-.4-4.9-4.6-.3-.3h-.5c0-.1-7.4-1.1-7.4-1.1l-.5-.2Z" class="st4"/></g><g id="last-fm"><path d="M144 94.6 97.4 96 96 49.4l48-1.4v46.6z" style="fill:#dc1a23"/><path d="m121.2 79.3-1.8-3.7-6.9 4.6-5.1-4.1-1.3-8.4 7.3-2.7 16.5 17.2 6.1-.8 3.3-9.3-10.6-4.3 2-4.7 4.6 2.4 2-1.4-4.3-4-5 .2-2.6 8.8 9.9 5.4-1.4 3.7-2.7.6L114 60.4l-12.1 5.7 1.5 11.8 9.1 7.2 8.7-5.8z" class="st10"/></g><g id="pinterest"><path d="m192 142.6-46.6 1.4-1.4-46.6 48-1.4v46.6z" style="fill:#cc2127"/><path d="m158.6 143.6 4.7-28 5.1-3.2 2.7 3.9-2.7 10 10.7-.7 2.3-9.5-6.3-8.5-13.9 2.7-3.4 6.9 2.3 7.6-3.1 4.3-4.7-10.9 4.9-11.5 20-4.3 10.5 14.5-4.5 14.6-16.6-.4-1.8 12.3-6.2.2Z" class="st10"/></g><g id="dribble"><path d="M96 190.6 49.4 192 48 145.4l48-1.4v46.6z" style="fill:#ef578d"/><path d="M72.6 149.3c-10.7 0-19.4 8.7-19.4 19.4s8.7 19.4 19.4 19.4S92 179.4 92 168.7s-8.7-19.4-19.4-19.4Zm14.7 18.2-9.4 1.4-2.1-4.3 4.6-8.6c3.9 2.6 6.5 6.7 6.9 11.5Zm-10.3-13-3.3 6.9-4.6-7.1c1.1-.3 2.2-.4 3.4-.4 1.6 0 3.1.1 4.5.6Zm-11.9 1.4 5.4 8.3-12.5 2.4c.6-4.5 3.3-8.4 7.1-10.7Zm-7.2 13.8 14.1-3.1 1.6 3.7-11.8 8.6c-2.2-2.4-3.7-5.6-3.9-9.2Zm14.7 13.9c-2.7 0-5.3-.8-7.5-2.1l9.3-8 2.2 9.5c-1.3.4-2.7.6-4 .6Zm8.3-2.6-2.3-8.7 8.3-.4c-.7 3.8-2.9 7-6 9.1Z" class="st10"/></g><g id="mastodon"><path d="m48 192-48 1.4L1.4 240l46.6-1.4V192z" class="st19"/><path d="M34.9 198.9h-19c0 .1-6 5.7-6 5.7l-.2 15.7 3.4 8.6 10.1 4.3 8.4-2.4-.4-3-8 .9-3.9-4.7h18.2l3.7-3.9.7-15.3-7-5.9Z" style="fill:#f3f6f5"/><path d="m36 217.8-6.8-14.9-4.7 9.1-3.9-8.6-6.9 15 22.3-.6z" class="st19"/></g><g id="tumblr"><path d="M144 142.6 97.4 144 96 97.4l48-1.4v46.6z" style="fill:#36455d"/><path d="m133.3 119.5.8-7.7h-8.9l.3-7.8-9.1.4.1 7.4h-6.4l-.3 6.3 6.9.4.3 14.8 13.9 3.6 1.2-6.9-7.4-2.2.3-8.8 8.3.5z" class="st10"/></g><g id="spotify"><path d="M96 238.6 49.4 240 48 193.4l48-1.4v46.6z"/><circle cx="72" cy="216" r="19.6" style="fill:#1ed660"/><path d="m60.4 221 1.6 2.6 8.2-1.6 10 3.4 1.6-2.6-11.3-3.6-10.1 1.8zM61.3 217.5 72 216l10.2 4.2 2.1-2.4-12.4-4.5-12.1 1.4 1.5 2.8zM59.8 211.2c0-.2-1.3-3.2-1.3-3.2l15.1-1.9 13 5.2-2.6 2.9-11.1-4.5-13.1 1.5Z"/></g><g id="medium"><path d="M144 190.6 97.4 192 96 145.4l48-1.4v46.6z" class="st4"/><ellipse cx="109.9" cy="168" class="st10" rx="11.3" ry="12.3"/><ellipse cx="129.3" cy="168" class="st10" rx="5.7" ry="11.7"/><ellipse cx="139.2" cy="168" class="st10" rx="2.2" ry="10.3"/></g><g id="bluesky"><path d="M144 238.6 97.4 240 96 193.4l48-1.4v46.6z" style="fill:#1185fe"/><path d="m111.5 220-7.8 5.5 10.6 8.8 6.2-9.4 7.8 9.6s9.2-9.8 8.6-10.1-8.2-4.5-8.2-4.5l12.2-6.9s-6.4-16.3-6.7-16.3-13.9 17.9-13.9 17.9l-16.4-18.1-2.4 17.9 10 5.5Z" class="st10"/></g><g id="threads"><path d="m192 238.6-46.6 1.4-1.4-46.6 48-1.4v46.6z" style="fill:#0a0a0a"/><path d="m172.1 204.2-12.5 3.5 4 3.7 6.8-3.7 2.1 5.4-10.8 1.4-1.9 8 8.9 2.8 7.5-7.7 2.8 4.7-7.8 8.3-14.2-4.3-2.6-19.7 16.1-6.6 9.6 8.7h4.7l-13.3-12.9-20.4 9.6 3 24.1 18.5 5.8 11.9-14-9.4-8.2-3.1-8.9Zm-4.6 18.7-5.1-5.1 10.1-1.9-4.9 7Z" class="st10"/></g></svg>