<?xml version="1.0" encoding="utf-8"?>
<!-- Generator: Adobe Illustrator 22.1.0, SVG Export Plug-In . SVG Version: 6.00 Build 0)  -->
<svg version="1.1" id="Layer_1" xmlns="http://www.w3.org/2000/svg" xmlns:xlink="http://www.w3.org/1999/xlink" x="0px" y="0px"
	 viewBox="0 0 546 51" style="enable-background:new 0 0 546 51;" xml:space="preserve">
<style type="text/css">
	.st0{fill:#D02E2E;}
	.st1{fill:#CD2931;}
	.st2{fill:#A50709;}
</style>
<g>
	<g>
		<path class="st0" d="M59.1,2.8c-9.5,0-17.1,7.6-17.1,17c0,9.4,7.7,17,17.1,17s17.1-7.6,17.1-17C76.2,10.4,68.5,2.8,59.1,2.8"/>
		<path class="st1" d="M339.7,2.7c0,0.6-10.6,45.2,15.6,46.1c22.1,0.8,17.1-46.1,17.1-46.1H339.7z"/>
		<path class="st0" d="M16.2,4.5H4l0.6,10.3l11.9,0L16.2,4.5 M40.7,4.5H27.2l-0.1,10.3l13.5,0L40.7,4.5"/>
		<polyline class="st0" points="47.7,39.5 47.7,44.7 70.3,44.6 70.1,39.5 47.7,39.5 		"/>
		<polyline class="st0" points="446.2,35.9 446.2,42.3 469.5,42.2 469.3,35.9 446.2,35.9 		"/>
		<polyline class="st0" points="118.9,4.2 108.8,4.2 108.8,49.5 118.9,49.5 118.9,32.8 108.8,32.8 108.8,23.6 118.9,23.6 118.9,4.2 
					"/>
		<path class="st0" d="M140.9,32.8h-10.8v16.7h10.8V32.8 M140.9,4.2h-10.8v19.4l10.8,0V4.2"/>
		<polyline class="st0" points="118.9,23.6 118.9,32.8 130.1,32.8 130.1,23.6 118.9,23.6 		"/>
		<polyline class="st2" points="108.8,23.6 108.8,32.8 118.9,32.8 118.9,23.6 108.8,23.6 		"/>
		<polyline class="st2" points="130.1,23.6 130.1,32.8 140.9,32.8 140.9,23.6 130.1,23.6 		"/>
		<polyline class="st0" points="519.4,2.3 509.1,2.3 509.1,47.5 519.4,47.5 519.4,30.8 509.1,30.8 509.1,20.1 519.4,20.1 519.4,2.3 
					"/>
		<path class="st0" d="M542,30.8h-11v16.7h11V30.8 M542,2.3h-11v17.8h11V2.3"/>
		<polyline class="st0" points="531,20.1 519.4,20.1 519.4,30.8 531,30.8 531,20.1 		"/>
		<polyline class="st2" points="519.4,20.1 509.1,20.1 509.1,30.8 519.4,30.8 519.4,20.1 		"/>
		<polyline class="st2" points="542,20.1 531,20.1 531,30.8 542,30.8 542,20.1 		"/>
		<polyline class="st0" points="176.8,4.6 158.1,4.6 158.2,12.8 176.8,12.8 176.8,4.6 		"/>
		<path class="st0" d="M457.8,2C449.1,2,442,9,442,17.7c0,8.7,7.1,15.7,15.8,15.7c8.7,0,15.8-7,15.8-15.7C473.6,9,466.5,2,457.8,2"
			/>
		<polyline class="st0" points="27.1,14.8 16.4,14.8 17.1,50.3 26.8,50.3 27.1,14.8 		"/>
		<polyline class="st2" points="27.2,4.5 16.2,4.5 16.4,14.8 27.1,14.8 27.2,4.5 		"/>
		<polyline class="st0" points="247.7,2.5 232.4,49.7 262.5,49.7 249,49.7 256.3,30 247.7,2.5 		"/>
		<polyline class="st0" points="266.6,2.5 256.3,30 262.5,49.7 281.4,49.7 266.6,2.5 		"/>
		<polyline class="st2" points="256.3,30 249,49.7 262.5,49.7 256.3,30 		"/>
		<path class="st0" d="M190.2,5.6c-2.7,0-4.5,0.3-4.5,0.3v30.3l0,0V14.1l13.3,18.8c4.6-2.4,8.7-6.6,8.7-13.8
			C207.7,7.4,196.6,5.6,190.2,5.6"/>
		<path class="st0" d="M303.1,13.6c0,0-23.1,2.3-22.1,20.3c0.8,13.4,13.8,15.2,20.3,15.2c2.2,0,3.7-0.2,3.7-0.2L303.1,13.6"/>
		<path class="st0" d="M332.7,1c0,0-27.4,3-26,27c1,18.1,16.7,20.4,24.4,20.4c2.5,0,4.1-0.2,4.1-0.2L332.7,1"/>
		<path class="st0" d="M502.1,0.4c0,0-27.4,3-26,27c1,18.1,16.7,20.4,24.4,20.4c2.5,0,4.1-0.2,4.1-0.2L502.1,0.4"/>
		<path class="st0" d="M86.6,4.5C83,4.5,80.3,5,80.3,5l9.9,0l-0.2,31.3c7.2-2.2,15.7-7.1,15.1-17.7C104.3,6.5,93.7,4.5,86.6,4.5"/>
		<polyline class="st0" points="389.3,2.2 377.5,2.2 377.4,38.7 389.3,38.7 389.3,2.2 		"/>
		<path class="st0" d="M80.3,5l0,46l9.5,0l0.1-14.7c-5.1,1.6-9.6,1.8-9.6,1.8V5L80.3,5"/>
		<path class="st2" d="M80.3,5L80.3,5v33.1c0,0,4.5-0.2,9.6-1.8L90.2,5L80.3,5"/>
		<path class="st0" d="M377.4,38.7L377.4,38.7l0,10.8L377.4,38.7 M407,38.7l-17.7,0l0,10.8l-11.8,0l29.5,0L407,38.7"/>
		<polyline class="st2" points="389.3,38.7 377.4,38.7 377.4,49.5 389.3,49.5 389.3,38.7 		"/>
		<polyline class="st0" points="422.6,2.1 410.8,2.1 410.8,38.8 422.6,38.8 422.6,2.1 		"/>
		<polyline class="st0" points="440.3,38.7 422.6,38.8 422.6,49.5 410.8,49.5 410.8,38.8 410.7,38.8 410.8,49.5 440.3,49.6 
			440.3,38.7 		"/>
		<polyline class="st2" points="422.6,38.8 410.8,38.8 410.8,49.5 422.6,49.5 422.6,38.8 		"/>
		<path class="st0" d="M198.9,32.9c-6.1,3.2-13.3,3.3-13.3,3.3v14h25.5L198.9,32.9"/>
		<path class="st2" d="M185.7,14.1v22.1c0,0,7.1-0.1,13.3-3.3L185.7,14.1"/>
		<polyline class="st0" points="158.1,4.6 148.7,4.6 148.6,49.8 176,49.8 176,36.8 167.1,36.9 167,23.7 158.4,23.7 158.2,12.8 
			148.7,12.8 148.7,4.6 158.1,4.6 158.1,4.6 		"/>
		<polyline class="st2" points="158.1,4.6 148.7,4.6 148.7,12.8 158.2,12.8 158.1,4.6 		"/>
	</g>
</g>
</svg>
